HIERARCHY
ROOT hips
{
  OFFSET 0 10.6860622 2.3727825e-15
  CHANNELS 6 Xposition Yposition Zposition Yrotation Xrotation Zrotation
  JOINT leftUpperLeg
  {
    OFFSET 0.6642549969 -0.9402397400000004 0
    CHANNELS 3 Yrotation Xrotation Zrotation
    JOINT leftLowerLeg
    {
      OFFSET 0 -3.997221335632195 0
      CHANNELS 3 Yrotation Xrotation Zrotation
      JOINT leftFoot
      {
        OFFSET -0.13777839790000004 -4.6145792000000005 -0.22186036399999998
        CHANNELS 3 Yrotation Xrotation Zrotation
        JOINT leftToes
        {
          OFFSET -0.03777410834999995 -0.9130806927000008 0.85230013
          CHANNELS 3 Yrotation Xrotation Zrotation
          End Site
          {
            OFFSET -0.03777410834999995 -0.9130806927000008 0.85230013
          }
        }
      }
    }
  }
  JOINT rightUpperLeg
  {
    OFFSET -0.6642778626 -0.9402397400000004 0
    CHANNELS 3 Yrotation Xrotation Zrotation
    JOINT rightLowerLeg
    {
      OFFSET 0 -3.997221452859387 0
      CHANNELS 3 Yrotation Xrotation Zrotation
      JOINT rightFoot
      {
        OFFSET 0.1377926176 -4.6145792000000005 -0.22185782299999995
        CHANNELS 3 Yrotation Xrotation Zrotation
        JOINT rightToes
        {
          OFFSET 0.037780746850000047 -0.9130806927000008 0.85230167
          CHANNELS 3 Yrotation Xrotation Zrotation
          End Site
          {
            OFFSET 0.037780746850000047 -0.9130806927000008 0.85230167
          }
        }
      }
    }
  }
  JOINT spine
  {
    OFFSET 0 0.13988381660000015 0
    CHANNELS 3 Yrotation Xrotation Zrotation
    JOINT chest
    {
      OFFSET 0 0.6191039003973773 0
      CHANNELS 3 Yrotation Xrotation Zrotation
      JOINT upperChest
      {
        OFFSET 0 0.9855186130586943 0
        CHANNELS 3 Yrotation Xrotation Zrotation
        JOINT leftShoulder
        {
          OFFSET 0.1807663869 1.5087829790000005 0
          CHANNELS 3 Yrotation Xrotation Zrotation
          JOINT leftUpperArm
          {
            OFFSET 0.5985063006419806 0 0
            CHANNELS 3 Yrotation Xrotation Zrotation
            JOINT leftLowerArm
            {
              OFFSET 2.2993332369501065 0 0
              CHANNELS 3 Yrotation Xrotation Zrotation
              JOINT leftHand
              {
                OFFSET 2.395047042602395 0 0
                CHANNELS 3 Yrotation Xrotation Zrotation
                JOINT leftIndexProximal
                {
                  OFFSET 0.5766295810000004 0.04556643899499946 0.17265095988184
                  CHANNELS 3 Yrotation Xrotation Zrotation
                  JOINT leftIndexIntermediate
                  {
                    OFFSET 0.2957229000000008 -0.019352197700001517 -0.007932640616999987
                    CHANNELS 3 Yrotation Xrotation Zrotation
                    JOINT leftIndexDistal
                    {
                      OFFSET 0.19008243099999922 -0.012484908149998475 -0.002786250786000012
                      CHANNELS 3 Yrotation Xrotation Zrotation
                      End Site
                      {
                        OFFSET 0.19008243099999922 -0.012484908149998475 -0.002786250786000012
                      }
                    }
                  }
                }
                JOINT leftMiddleProximal
                {
                  OFFSET 0.5834975091000001 0.0524350405149987 0.02204081888183999
                  CHANNELS 3 Yrotation Xrotation Zrotation
                  JOINT leftMiddleIntermediate
                  {
                    OFFSET 0.33880573540000003 -0.019871473270000717 -0.00000971183179999946
                    CHANNELS 3 Yrotation Xrotation Zrotation
                    JOINT leftMiddleDistal
                    {
                      OFFSET 0.20676022730000088 -0.012221336379999448 0.0001471936708000235
                      CHANNELS 3 Yrotation Xrotation Zrotation
                      End Site
                      {
                        OFFSET 0.20676022730000088 -0.012221336379999448 0.0001471936708000235
                      }
                    }
                  }
                }
                JOINT leftLittleProximal
                {
                  OFFSET 0.5344154683999995 -0.012880921405001189 -0.24414037221816004
                  CHANNELS 3 Yrotation Xrotation Zrotation
                  JOINT leftLittleIntermediate
                  {
                    OFFSET 0.21758961730000093 -0.011650919939999227 0.011893592810000034
                    CHANNELS 3 Yrotation Xrotation Zrotation
                    JOINT leftLittleDistal
                    {
                      OFFSET 0.1475273964999999 -0.008152365682999818 0.006001092492999946
                      CHANNELS 3 Yrotation Xrotation Zrotation
                      End Site
                      {
                        OFFSET 0.1475273964999999 -0.008152365682999818 0.006001092492999946
                      }
                    }
                  }
                }
                JOINT leftRingProximal
                {
                  OFFSET 0.5799399463000003 0.026911854694997794 -0.12150566991816003
                  CHANNELS 3 Yrotation Xrotation Zrotation
                  JOINT leftRingIntermediate
                  {
                    OFFSET 0.26167887460000006 -0.013480186499999602 0.010996293000000053
                    CHANNELS 3 Yrotation Xrotation Zrotation
                    JOINT leftRingDistal
                    {
                      OFFSET 0.17667108799999987 -0.008990287899999228 0.0055541023999999065
                      CHANNELS 3 Yrotation Xrotation Zrotation
                      End Site
                      {
                        OFFSET 0.17667108799999987 -0.008990287899999228 0.0055541023999999065
                      }
                    }
                  }
                }
                JOINT leftThumbProximal
                {
                  OFFSET 0.11018806699999972 -0.09448718900500053 0.17047963138184
                  CHANNELS 3 Yrotation Xrotation Zrotation
                  JOINT leftThumbIntermediate
                  {
                    OFFSET 0.31062601459999983 -0.08126270900000132 0.15443142000000007
                    CHANNELS 3 Yrotation Xrotation Zrotation
                    JOINT leftThumbDistal
                    {
                      OFFSET 0.21627175790000086 -0.08833193599999878 0.018771167799999988
                      CHANNELS 3 Yrotation Xrotation Zrotation
                      End Site
                      {
                        OFFSET 0.21627175790000086 -0.08833193599999878 0.018771167799999988
                      }
                    }
                  }
                }
              }
            }
          }
        }
        JOINT neck
        {
          OFFSET 0 1.5463305265074576 0
          CHANNELS 3 Yrotation Xrotation Zrotation
          JOINT head
          {
            OFFSET 0 0.8456443600000344 0
            CHANNELS 3 Yrotation Xrotation Zrotation
            JOINT leftEye
            {
              OFFSET 0.30408573140000006 0.5104519199999995 0.1276382305
              CHANNELS 3 Yrotation Xrotation Zrotation
              End Site
              {
                OFFSET 0.30408573140000006 0.5104519199999995 0.1276382305
              }
            }
            JOINT rightEye
            {
              OFFSET -0.30409491089999996 0.5104519199999995 0.1276379445
              CHANNELS 3 Yrotation Xrotation Zrotation
              End Site
              {
                OFFSET -0.30409491089999996 0.5104519199999995 0.1276379445
              }
            }
            JOINT jaw
            {
              OFFSET -3.155239131000001e-7 -0.11984121820000082 0.60178107
              CHANNELS 3 Yrotation Xrotation Zrotation
              End Site
              {
                OFFSET -3.155239131000001e-7 -0.11984121820000082 0.60178107
              }
            }
          }
        }
        JOINT rightShoulder
        {
          OFFSET -0.1807303465 1.5087829790000005 0
          CHANNELS 3 Yrotation Xrotation Zrotation
          JOINT rightUpperArm
          {
            OFFSET -0.5985063796536958 0 0
            CHANNELS 3 Yrotation Xrotation Zrotation
            JOINT rightLowerArm
            {
              OFFSET -2.2993322059002854 0 0
              CHANNELS 3 Yrotation Xrotation Zrotation
              JOINT rightHand
              {
                OFFSET -2.395045314457259 0 0
                CHANNELS 3 Yrotation Xrotation Zrotation
                JOINT rightIndexProximal
                {
                  OFFSET -0.5764487688300002 0.0441371204405987 0.17361932004999997
                  CHANNELS 3 Yrotation Xrotation Zrotation
                  JOINT rightIndexIntermediate
                  {
                    OFFSET -0.29573011380000047 -0.01934826376999843 -0.007698921482999974
                    CHANNELS 3 Yrotation Xrotation Zrotation
                    JOINT rightIndexDistal
                    {
                      OFFSET -0.19008373999999884 -0.012503266380000655 -0.0026365778999999897
                      CHANNELS 3 Yrotation Xrotation Zrotation
                      End Site
                      {
                        OFFSET -0.19008373999999884 -0.012503266380000655 -0.0026365778999999897
                      }
                    }
                  }
                }
                JOINT rightMiddleProximal
                {
                  OFFSET -0.5834852037300005 0.05211639405060153 0.02307162440000001
                  CHANNELS 3 Yrotation Xrotation Zrotation
                  JOINT rightMiddleIntermediate
                  {
                    OFFSET -0.33880114510000003 -0.019952774050000954 0.0002455003561999819
                    CHANNELS 3 Yrotation Xrotation Zrotation
                    JOINT rightMiddleDistal
                    {
                      OFFSET -0.20675694929999955 -0.012273788999999091 0.00030209124000002766
                      CHANNELS 3 Yrotation Xrotation Zrotation
                      End Site
                      {
                        OFFSET -0.20675694929999955 -0.012273788999999091 0.00030209124000002766
                      }
                    }
                  }
                }
                JOINT rightLittleProximal
                {
                  OFFSET -0.5346811737299992 -0.011214256288399227 -0.24363941305000003
                  CHANNELS 3 Yrotation Xrotation Zrotation
                  JOINT rightLittleIntermediate
                  {
                    OFFSET -0.21757715980000092 -0.011771559690000988 0.01201554387
                    CHANNELS 3 Yrotation Xrotation Zrotation
                    JOINT rightLittleDistal
                    {
                      OFFSET -0.1475201849000004 -0.00822055339600003 0.006082065407000015
                      CHANNELS 3 Yrotation Xrotation Zrotation
                      End Site
                      {
                        OFFSET -0.1475201849000004 -0.00822055339600003 0.006082065407000015
                      }
                    }
                  }
                }
                JOINT rightRingProximal
                {
                  OFFSET -0.5800810755299999 0.027657985680600072 -0.12066365025000003
                  CHANNELS 3 Yrotation Xrotation Zrotation
                  JOINT rightRingIntermediate
                  {
                    OFFSET -0.26166445029999974 -0.013623118409999302 0.011164098990000045
                    CHANNELS 3 Yrotation Xrotation Zrotation
                    JOINT rightRingDistal
                    {
                      OFFSET -0.17666387530000027 -0.009072900100000503 0.005668185599999959
                      CHANNELS 3 Yrotation Xrotation Zrotation
                      End Site
                      {
                        OFFSET -0.17666387530000027 -0.009072900100000503 0.005668185599999959
                      }
                    }
                  }
                }
                JOINT rightThumbProximal
                {
                  OFFSET -0.10997596379000074 -0.09577489355940072 0.16989765924999997
                  CHANNELS 3 Yrotation Xrotation Zrotation
                  JOINT rightThumbIntermediate
                  {
                    OFFSET -0.31036620999999986 -0.08229339117999834 0.15440884469999996
                    CHANNELS 3 Yrotation Xrotation Zrotation
                    JOINT rightThumbDistal
                    {
                      OFFSET -0.21631306399999906 -0.08825326400000111 0.018656797720000014
                      CHANNELS 3 Yrotation Xrotation Zrotation
                      End Site
                      {
                        OFFSET -0.21631306399999906 -0.08825326400000111 0.018656797720000014
                      }
                    }
                  }
                }
              }
            }
          }
        }
      }
    }
  }
}
MOTION
Frames: 9
Frame Time: 0.03333333333333333
0 11.682712981546562 0 0 0 0 0 0 -5.826343164929014 -0.3712483961610101 -3.6333298826370974 5.838118207697276 0 0 0 0 0 0 0 0 5.826343164929014 0.3712483961610101 -3.6333298826370974 -5.838118207697276 0 0 0 0 0 0 0 -4.610651315171937 0 0 3.0831277533083026 0 0 0 0 0 1.5275236235667615 0 0 0 0 0 0 0 0 0 0 0 0 0 0 0 0 0 0 0 0 0 0 0 0 0 0 0 0 0 0 0 0 0 0 0 0 0 0 0 0 0 0 0 0 0 0 0 0 0 0 0 0 0 0 0 0 1.5275236235667615 0 0 0 0 0 0 0 0 0 0 0 0 0 0 1.5275236235667615 0 0 0 0 0 0 0 0 0 0 0 0 0 0 0 0 0 0 0 0 0 0 0 0 0 0 0 0 0 0 0 0 0 0 0 0 0 0 0 0 0 0 0 0 0 0 0 0 0 0 0 0 0 0 0
-1.139535879627271 0.7249331610354108 -0.6203565280514397 0 -45.00094081339915 0 17.04215261807847 -38.67635167844221 -15.995833995560458 0.7474500895621262 33.47498064528137 9.458203938529685 -15.179925796465486 25.741317824595466 -5.294375999475863 0 0 0 -8.80151270515577 -29.412549207271574 -20.878224355732225 -5.668741559326518 47.54711772619306 -12.399575560512302 26.811862149551267 21.793984934834857 -10.787742065360108 0 0 0 -6.22192876246045 12.323901072905544 -8.661728071915702 -9.32973589395994 18.20410046724144 -6.004798612925969 0 0 0 -5.045454513071748 5.357061219416077 -14.463263115405386 23.739726438618515 -31.12556387370141 -24.071260499891462 -10.092785296943408 29.840388433957866 -6.341540051046555 2.266824855411935 20.31462265083166 37.98495336227528 0 0 0 0 0 0 0 0 0 0 0 0 0 0 0 0 0 0 0 0 0 0 0 0 0 0 0 0 0 0 0 0 0 0 0 0 0 0 0 0 0 0 0 0 0 3.7026281005417108 2.5227298327099885 -13.463870557641053 14.637437035668333 -0.6560928547442704 -0.7250528254411693 0 0 0 0 0 0 0 0 0 -21.050453999995284 -8.665898921878082 17.149885354807758 4.620049616499684 27.64986700984133 18.411610711669336 12.82967933768949 20.17196480955306 -36.20830638611363 4.283612141066908 4.420212467837602 -1.0385471512701936 0 0 0 0 0 0 0 0 0 0 0 0 0 0 0 0 0 0 0 0 0 0 0 0 0 0 0 0 0 0 0 0 0 0 0 0 0 0 0 0 0 0 0 0 0
-2.279071759254542 -10.23284665947574 -1.2407130561028794 0 -90 0 73.36724509293576 -66.22158936172423 -67.3561070612032 10.001748206062292 70.24863264034349 20.44996367601968 -39.629510657125735 48.37395807479611 -22.26981064115413 0 0 0 2.575567638160043 -58.99267410626693 -58.11393417424848 -137.8000970462479 77.57537684968698 -144.88989644981797 56.287462213741954 45.98039655907237 -9.768831031138122 0 0 0 -9.033108678970862 28.340269205690053 -21.04125679695998 -21.615440592264846 31.967846134577357 -15.530727576037352 0 0 0 -10.925057867516836 7.7880030269644545 -29.296935663888263 70.19314109937194 -43.530989705338605 -70.77979504477806 -32.366036135552676 57.07072646659765 -25.849068429650153 19.323501731111755 34.09251278775791 83.46393515651823 0 0 0 0 0 0 0 0 0 0 0 0 0 0 0 0 0 0 0 0 0 0 0 0 0 0 0 0 0 0 0 0 0 0 0 0 0 0 0 0 0 0 0 0 0 7.076721762697236 4.350240225668985 -26.856300131021914 29.28407217594758 -1.1076021936346439 -1.5924961143127196 0 0 0 0 0 0 0 0 0 -44.569767221234514 -11.557886156253238 37.156914890891805 24.635156542456414 51.242479788695086 48.75353655759835 10.007674853032919 43.81682076218662 -76.2357891314458 8.524716881550502 8.905286845686257 -1.7498144329592369 0 0 0 0 0 0 0 0 0 0 0 0 0 0 0 0 0 0 0 0 0 0 0 0 0 0 0 0 0 0 0 0 0 0 0 0 0 0 0 0 0 0 0 0 0
-2.279071759254542 -10.23284665947574 -1.2407130561028794 0 -90 0 73.36724509293576 -66.22158936172423 -67.3561070612032 10.001748206062292 70.24863264034349 20.44996249242363 -39.629510657125735 48.37395293364143 -22.269806313981377 0 0 0 2.497705556685252 -59.07926952647848 -58.171216988998346 -137.80008371872717 77.57539272241195 -144.8898856975457 56.30045861207231 46.072575616109894 -9.886640388211028 0 0 0 -9.04256793832583 28.449938311130744 -21.06109887525601 -21.55837429117709 31.735636913400057 -15.422575837092733 0 0 0 -10.839700486063593 7.882943705656887 -29.43136311074692 70.19313666757964 -43.530984994876185 -70.77979170885109 -32.366036135552676 57.07072646659765 -25.849068429650153 19.323501731111755 34.09251278775791 83.46393515651823 0 0 0 0 0 0 0 0 0 0 0 0 0 0 0 0 0 0 0 0 0 0 0 0 0 0 0 0 0 0 0 0 0 0 0 0 0 0 0 0 0 0 0 0 0 7.076721762697236 4.350239797548749 -26.856298603245122 29.28407217594758 -1.1076021936346439 -1.5924961143127196 0 0 0 0 0 0 0 0 0 -44.63366278332809 -11.485231933176236 37.11353648830414 24.635156542456414 51.242479788695086 48.75353655759835 10.007674853032919 43.81682076218662 -76.2357891314458 8.524716881550502 8.905286845686257 -1.7498144329592369 0 0 0 0 0 0 0 0 0 0 0 0 0 0 0 0 0 0 0 0 0 0 0 0 0 0 0 0 0 0 0 0 0 0 0 0 0 0 0 0 0 0 0 0 0
-2.279071759254542 -10.23284665947574 -1.2407130561028794 0 -90 0 73.36724509293576 -66.22158936172423 -67.3561070612032 10.001748206062292 70.24863264034349 20.44996249242363 -39.62950737799076 48.37395293364143 -22.269806313981377 0 0 0 2.419815055866722 -59.165904103648614 -58.22841898259967 -137.8000730567056 77.57539272241195 -144.8898710398877 56.313203756257025 46.16477082420017 -10.00461698690792 0 0 0 -9.052082020114694 28.55960657042433 -21.080982241725625 -21.501967639430976 31.503335367777645 -15.314965137599332 0 0 0 -10.754548497619961 7.978082905627651 -29.56567657233235 70.19312953169607 -43.530984994876185 -70.77978837292427 -32.366036135552676 57.07072646659765 -25.849068429650153 19.323501731111755 34.09251278775791 83.46393515651823 0 0 0 0 0 0 0 0 0 0 0 0 0 0 0 0 0 0 0 0 0 0 0 0 0 0 0 0 0 0 0 0 0 0 0 0 0 0 0 0 0 0 0 0 0 7.076721337838401 4.350239369428515 -26.85629707546829 29.28407217594758 -1.1076021936346439 -1.5924961143127196 0 0 0 0 0 0 0 0 0 -44.69759576224598 -11.412624296386157 37.07008971371522 24.635156542456414 51.242479788695086 48.75353655759835 10.007674853032919 43.81682076218662 -76.2357891314458 8.524716881550502 8.905286845686257 -1.7498144329592369 0 0 0 0 0 0 0 0 0 0 0 0 0 0 0 0 0 0 0 0 0 0 0 0 0 0 0 0 0 0 0 0 0 0 0 0 0 0 0 0 0 0 0 0 0
-2.279071759254542 -10.23284665947574 -1.2407130561028794 0 -90 0 73.36724509293576 -66.22158936172423 -67.3561070612032 10.001744073796598 70.24863264034349 20.449958981602393 -39.629510657125735 48.37395293364143 -22.269806313981377 0 0 0 2.341890595448397 -59.25259169446103 -58.28553492741347 -137.80008371872717 77.57537684968698 -144.88988245138228 56.32568416851008 46.25699732157306 -10.122785865399827 0 0 0 -9.061647706402972 28.669276329482294 -21.10090724628915 -21.446193659376657 31.270878448653058 -15.207857114939404 0 0 0 -10.669585333125557 8.073436548865198 -29.699901319540395 70.19313666757964 -43.530984994876185 -70.77979282082673 -32.366036135552676 57.07072646659765 -25.849068429650153 19.323497839582377 34.09250866391299 83.46392388965369 0 0 0 0 0 0 0 0 0 0 0 0 0 0 0 0 0 0 0 0 0 0 0 0 0 0 0 0 0 0 0 0 0 0 0 0 0 0 0 0 0 0 0 0 0 7.076721762697236 4.350239797548749 -26.856298603245122 29.28407217594758 -1.1076021936346439 -1.5924961143127196 0 0 0 0 0 0 0 0 0 -44.76158135469025 -11.340061351924998 37.026572267154705 24.635151789185315 51.242479788695086 48.753530657637334 10.007674853032919 43.81682076218662 -76.2357891314458 8.524716881550502 8.905286845686257 -1.7498144329592369 0 0 0 0 0 0 0 0 0 0 0 0 0 0 0 0 0 0 0 0 0 0 0 0 0 0 0 0 0 0 0 0 0 0 0 0 0 0 0 0 0 0 0 0 0
-2.279071759254542 -10.23284665947574 -1.2407130561028794 0 -90 0 73.3672428662833 -66.22158936172423 -67.35610543072426 10.001739063969456 70.24862253469739 20.449955470783642 -39.629510657125735 48.37395807479611 -22.26981064115413 0 0 0 2.263936852715778 -59.33931950968921 -58.342567270585555 -137.8000941065973 77.57537684968698 -144.88989320365476 56.3379068562752 46.34924066318099 -10.241124447912517 0 0 0 -9.071266574225135 28.778942150909373 -21.120876058539412 -21.39106406365746 31.03833523706862 -15.101276656525476 0 0 0 -10.58482833829946 8.168986937544348 -29.834017737956554 70.19314109937194 -43.530989705338605 -70.77979838070515 -32.366036135552676 57.07072646659765 -25.849068429650153 19.32349063770221 34.09250866391299 83.46391262278965 0 0 0 0 0 0 0 0 0 0 0 0 0 0 0 0 0 0 0 0 0 0 0 0 0 0 0 0 0 0 0 0 0 0 0 0 0 0 0 0 0 0 0 0 0 7.076721762697236 4.350240225668985 -26.856300131021914 29.28407217594758 -1.1076021936346439 -1.5924961143127196 0 0 0 0 0 0 0 0 0 -44.825602687991065 -11.267545560958265 36.982978390546386 24.635146830516717 51.242479788695086 48.75352680850463 10.007674853032919 43.81682076218662 -76.2357891314458 8.524715172263692 8.905285117304338 -1.7498144329592369 0 0 0 0 0 0 0 0 0 0 0 0 0 0 0 0 0 0 0 0 0 0 0 0 0 0 0 0 0 0 0 0 0 0 0 0 0 0 0 0 0 0 0 0 0
-2.279071759254542 -10.23284665947574 -1.2407130561028794 0 -90 0 73.36724509293576 -66.22158936172423 -67.35610543072426 10.001744073796598 70.24863264034349 20.449958981602393 -39.629510657125735 48.37395293364143 -22.26981064115413 0 0 0 2.211946440300978 -59.397156178628926 -58.38054246717992 -137.8000941065973 77.57537684968698 -144.88989320365476 56.34591505973372 46.41074849432911 -10.320122755346958 0 0 0 -9.077711461778389 28.852057635216994 -21.134210571757965 -21.35465540626575 30.88321181760517 -15.030493045939672 0 0 0 -10.528430077567762 8.23280772311852 -29.92338289380637 70.19314109937194 -43.530989705338605 -70.77979726872944 -32.366036135552676 57.07072646659765 -25.849068429650153 19.323495893817622 34.09250866391299 83.46392030474236 0 0 0 0 0 0 0 0 0 0 0 0 0 0 0 0 0 0 0 0 0 0 0 0 0 0 0 0 0 0 0 0 0 0 0 0 0 0 0 0 0 0 0 0 0 7.076721762697236 4.350240225668985 -26.85630165879866 29.28407217594758 -1.1076021936346439 -1.5924961143127196 0 0 0 0 0 0 0 0 0 -44.8683038954009 -11.219225210446282 36.95387455917508 24.635154063122094 51.242479788695086 48.753532708465585 10.007674853032919 43.81682076218662 -76.2357891314458 8.524716026907097 8.905285981495295 -1.7498144329592369 0 0 0 0 0 0 0 0 0 0 0 0 0 0 0 0 0 0 0 0 0 0 0 0 0 0 0 0 0 0 0 0 0 0 0 0 0 0 0 0 0 0 0 0 0
-2.279071759254542 -10.23284665947574 -1.2407130561028794 0 -90 0 73.3672473195879 -66.22158936172423 -67.3561070612032 10.001748206062292 70.24863264034349 20.44996367601968 -39.629510657125735 48.37395293364143 -22.26981064115413 0 0 0 2.1599429970758157 -59.455011087487605 -58.41848374352389 -137.8000941065973 77.57537684968698 -144.88989320365476 56.35380730105083 46.47227122185991 -10.399196776675197 0 0 0 -9.084178613267492 28.925169934215294 -21.147565682415607 -21.318529808219015 30.728053133274624 -14.95993800843905 0 0 0 -10.472123436672963 8.296714722692 -30.012701802742598 70.19314109937194 -43.530989705338605 -70.77979615675375 -32.366036135552676 57.07072646659765 -25.849068429650153 19.32349978534709 34.09251278775791 83.46392747456508 0 0 0 0 0 0 0 0 0 0 0 0 0 0 0 0 0 0 0 0 0 0 0 0 0 0 0 0 0 0 0 0 0 0 0 0 0 0 0 0 0 0 0 0 0 7.076721762697236 4.350240653789221 -26.85630165879866 29.28407217594758 -1.1076021936346439 -1.5924961143127196 0 0 0 0 0 0 0 0 0 -44.91102019058993 -11.170925995626442 36.924739474813 24.63515881639376 51.242485243892986 48.753536810122476 10.007674853032919 43.81682076218662 -76.2357891314458 8.524716881550502 8.905285981495295 -1.7498144329592369 0 0 0 0 0 0 0 0 0 0 0 0 0 0 0 0 0 0 0 0 0 0 0 0 0 0 0 0 0 0 0 0 0 0 0 0 0 0 0 0 0 0 0 0 0
